<svg xmlns="http://www.w3.org/2000/svg" enable-background="new 0 0 3800 3000" viewBox="0 0 3800 3000"><circle cx="1099.29" cy="1126.31" r="646.54" fill="#ffca03"/><circle cx="2846.12" cy="1909.94" r="501.13" fill="#ffca03"/><path fill="#f9f5ed" d="M3169.31 831.35v1516c0 61.91-50.06 111.97-111.97 111.97H792.1c-52.3 0-96.33-35.76-108.4-84.48-2.46-8.72-3.58-17.88-3.58-27.49v-1516c0-61.91 50.29-111.97 111.97-111.97h2265.23c61.92 0 111.99 50.06 111.99 111.97z"/><path fill="#fff" d="M3014.83 783.17H834.76c-50.17 0-90.85 40.67-90.85 90.84v1430.82c0 50.17 40.68 90.84 90.85 90.84h2180.07c50.17 0 90.84-40.68 90.84-90.84V874.01c0-50.17-40.67-90.84-90.84-90.84z"/><path fill="#f9f5ed" d="M2404.75 1550.12H2119.8c-12.28 0-22.24 9.96-22.24 22.24v219.2c0 12.28 9.96 22.24 22.24 22.24h284.95c12.28 0 22.24-9.96 22.24-22.24v-219.2c0-12.28-9.96-22.24-22.24-22.24zM1584.84 1826.31h-544.75c-23.48 0-42.52 19.04-42.52 42.52v225.55c0 23.48 19.04 42.52 42.52 42.52h544.75c23.48 0 42.52-19.04 42.52-42.52v-225.55c.01-23.48-19.03-42.52-42.52-42.52zM2782.3 1550.12h-284.95c-12.28 0-22.24 9.96-22.24 22.24v219.2c0 12.28 9.96 22.24 22.24 22.24h284.95c12.28 0 22.24-9.96 22.24-22.24v-219.2c0-12.28-9.96-22.24-22.24-22.24z"/><path fill="#f4ede1" d="M2023.67 1550.12h-284.95c-12.28 0-22.24 9.96-22.24 22.24v219.2c0 12.28 9.96 22.24 22.24 22.24h284.95c12.28 0 22.24-9.96 22.24-22.24v-219.2c0-12.28-9.96-22.24-22.24-22.24z"/><path fill="#fff" d="M1867.09 1603.7h28.21v156.51h-28.21z"/><path fill="#fff" d="M1867.09 1603.7h28.21v156.51h-28.21z" transform="rotate(-90 1881.19 1681.959)"/><path fill="#f9f5ed" d="M2404.75 1867.27H2119.8c-12.28 0-22.24 9.96-22.24 22.24v219.2c0 12.28 9.96 22.24 22.24 22.24h284.95c12.28 0 22.24-9.96 22.24-22.24v-219.2c0-12.28-9.96-22.24-22.24-22.24zM2782.3 1867.27h-284.95c-12.28 0-22.24 9.96-22.24 22.24v219.2c0 12.28 9.96 22.24 22.24 22.24h284.95c12.28 0 22.24-9.96 22.24-22.24v-219.2c0-12.28-9.96-22.24-22.24-22.24zM2023.67 1867.27h-284.95c-12.28 0-22.24 9.96-22.24 22.24v219.2c0 12.28 9.96 22.24 22.24 22.24h284.95c12.28 0 22.24-9.96 22.24-22.24v-219.2c0-12.28-9.96-22.24-22.24-22.24zM967.89 974.03c0 12.24-9.92 22.16-22.16 22.16s-22.16-9.92-22.16-22.16 9.92-22.16 22.16-22.16 22.16 9.92 22.16 22.16zM1068.57 974.03c0 12.24-9.92 22.16-22.16 22.16s-22.16-9.92-22.16-22.16 9.92-22.16 22.16-22.16 22.16 9.92 22.16 22.16zM1169.25 974.03c0 12.24-9.92 22.16-22.16 22.16s-22.16-9.92-22.16-22.16 9.92-22.16 22.16-22.16 22.16 9.92 22.16 22.16z"/><path fill="#f9d980" d="M1914.87 1264.48c-11.88.55-184.5 120.79-184.5 120.79l45.41-122.38 139.09 1.59z"/><path fill="#f9d980" d="m2797.29 876.35-1112.9.22c-24.1 0-43.64 19.55-43.64 43.65l.06 321.87c.01 24.1 19.55 43.64 43.65 43.63l1112.9-.22c24.1 0 43.64-19.55 43.63-43.65l-.06-321.87c.01-24.1-19.53-43.64-43.64-43.63z"/><path fill="#f5b501" d="m1746.37 1110.31 32.68.01c8.83 0 15.99 7.16 15.99 16 0 8.83-7.16 15.99-16 15.99l-32.68-.01c-8.83 0-15.99-7.16-15.99-15.99 0-8.84 7.17-16 16-16zM2142.82 1110.39l32.68.01c8.83 0 15.99 7.16 15.99 16 0 8.83-7.16 15.99-16 15.99l-32.68-.01c-8.83 0-15.99-7.16-15.99-15.99 0-8.84 7.17-16 16-16zM1838.61 1110.33l243.09.05c8.84 0 15.99 7.16 15.99 16 0 8.83-7.16 15.99-16 15.99l-243.09-.05c-8.83 0-15.99-7.16-15.99-15.99 0-8.84 7.16-16 16-16zM2058.24 1051.73l-311.86-.06c-8.83 0-15.99-7.16-15.99-15.99s7.16-15.99 16-15.99l311.86.06c8.83 0 15.99 7.16 15.99 16-.01 8.83-7.17 15.99-16 15.98zM2238.6 1051.77l-120.83-.02c-8.83 0-15.99-7.16-15.99-15.99s7.16-15.99 15.99-15.99l120.83.02c8.83 0 15.99 7.16 15.99 16 0 8.83-7.16 15.98-15.99 15.98z" opacity=".5"/><path fill="#f5b501" d="M2376.7 1165.85c-35.62 0-63.46-17.69-64.65-51.19h42.94c1.18 12.74 9.2 18.87 20.52 18.87 11.8 0 19.35-5.9 19.35-15.57 0-30.67-82.81-14.16-82.34-72.91 0-31.38 25.72-48.84 60.4-48.84 36.1 0 60.4 17.93 62.05 49.54h-43.65c-.71-10.62-8.26-16.99-19.11-17.22-9.67-.24-16.99 4.72-16.99 15.1 0 28.78 81.87 15.8 81.87 71.25.01 27.85-21.7 50.97-60.39 50.97zM2563.35 1030.9h-61.11v33.5h54.02v31.14h-54.02v36.33h61.11v32.32H2461.9V998.58h101.45v32.32zM2667.89 1165.85c-46.95 0-85.17-35.15-85.17-84.93 0-49.78 38.22-84.7 85.17-84.7 47.19 0 84.7 34.92 84.7 84.7s-37.75 84.93-84.7 84.93zm0-36.8c26.42 0 43.65-19.11 43.65-48.13 0-29.49-17.22-48.13-43.65-48.13-26.9 0-43.88 18.64-43.88 48.13 0 29.02 16.98 48.13 43.88 48.13z"/><path fill="#f4caba" d="M2732.41 2454.71s-25.07-35.62-20.6-40.51 17.1-11.1 21.15-9.65c4.05 1.45 19.53 43.76 16.61 51.2s-10.15 8.21-17.16-1.04z"/><path fill="#fff" d="M2740.2 2441.59c-5.78-4.07-11.33-8.47-16.8-12.95-2.65-2.17-5.26-4.36-8.05-6.35-1.08-.77-2.15-1.54-3.22-2.32 3.94 11.52 20.28 34.74 20.28 34.74 7.01 9.25 14.26 8.48 17.17 1.04.53-1.34.45-3.84-.05-7.02-3.05-2.46-6.12-4.88-9.33-7.14z" opacity=".2"/><path fill="#f9d980" d="M2724.5 2429.62c-2.58.47-5.21.67-7.81 1.07 6.63 17.9 15.56 24.49 15.56 24.49 7.33 9.68 14.91 8.86 17.95 1.09 1.78-4.54-3.01-21.54-8.14-35.19-3.98 4.99-11.96 7.52-17.56 8.54z"/><path fill="#ffca03" d="m2671.19 2507.8-3.83 2.25s.45 5.62 3.15 7.22c2.7 1.6 21.93.63 54.89-13.05 32.96-13.68 46.11-25.11 43.12-30.76-2.99-5.64-77.72 42.71-97.33 34.34z"/><path fill="#47271f" d="M2768.52 2473.47c-38.51 31.46-108.91 45.86-100.7 34.59 1.81-2.48 5.48-5.42 10.07-8.65 16.34-11.44 44.37-26.34 41.67-35.74-3.45-12.05 2.06-16.11 3.64-16.22.4-.02 1.53-.01 3.07-.08 4.48-.19 12.39-1.08 15.66-5.83 4.4-6.36 5.09-7.17 8.74-5.5 10.68 4.91 13.01 11.63 17.85 37.43z"/><path fill="#ffca03" d="M2726.27 2447.37c.45 2.96.43 6.51 0 9.59-1.11 7.71 5 9.46-1.2 24.85-6.19 15.39-34.5 19.57-43.01 19.97-5.01.23-5.01-1.17-4.16-2.37 16.34-11.44 44.37-26.34 41.67-35.74-3.45-12.05 2.06-16.11 3.64-16.22.4-.03 1.53-.02 3.06-.08z"/><path fill="#f4caba" d="M2904.78 2476.94s-9.89-42.42-3.91-45.28c5.98-2.86 20.02-3.88 23.23-1.02 3.21 2.86 1.7 47.89-3.79 53.69-5.49 5.81-12.5 3.82-15.53-7.39z"/><path fill="#fff" d="M2916.92 2467.69c-3.83-5.94-7.33-12.09-10.72-18.3-1.64-3-3.25-6.01-5.08-8.91-.71-1.12-1.42-2.24-2.12-3.36-.67 12.15 5.78 39.81 5.78 39.81 3.03 11.21 10.04 13.2 15.53 7.4.99-1.05 1.85-3.39 2.58-6.53-1.91-3.41-3.84-6.81-5.97-10.11z" opacity=".2"/><path fill="#f9d980" d="M2906.85 2450.71c-2.57-.53-5.08-1.33-7.64-1.93-.56 19.08 5.24 28.54 5.24 28.54 3.17 11.72 10.5 13.8 16.24 7.74 3.35-3.55 5.28-21.1 5.64-35.68-5.57 3.13-13.91 2.49-19.48 1.33z"/><path fill="#ffca03" d="m2828.12 2503.22-4.4.65s-1.68 5.38.22 7.88 20.1 8.8 55.78 8.47c35.69-.33 52.16-6 51.51-12.36-.66-6.36-88.07 10.46-103.11-4.64z"/><path fill="#47271f" d="M2931.22 2507.86c-47.5 14.73-118.16 1.7-106.33-5.68 2.61-1.62 7.11-2.97 12.58-4.24 19.44-4.48 51.01-7.79 52.03-17.52 1.32-12.46 7.95-14.16 9.45-13.68.38.13 1.43.57 2.87 1.08 4.22 1.5 11.89 3.64 16.7.47 6.46-4.25 7.41-4.74 10.16-1.82 8.08 8.56 7.73 15.66 2.54 41.39z"/><path fill="#ffca03" d="M2901.83 2467.83c-.7 2.91-2.04 6.2-3.59 8.89-3.91 6.73 1.09 10.64-10.43 22.59-11.51 11.95-39.32 5.21-47.36 2.4-4.73-1.66-4.21-2.96-2.97-3.76 19.44-4.48 51.01-7.79 52.03-17.52 1.32-12.46 7.95-14.16 9.45-13.68.39.13 1.43.56 2.87 1.08z"/><path fill="#e8ad80" d="M2785.93 1244.6s-12.89 29.01-8.59 33.3c4.3 4.3 14.5 6.45 14.5 6.45l-5.91-39.75z"/><path fill="#f4caba" d="M2788.61 1325.12c.49.38 1.05.64 1.62.83 5.94 1.99 11.84 2.48 17.18 2.22 1.54 7.86 0 45.84 0 45.84l49.52-24.79 2.82-26.09s35.57-97.2 12.37-114.01c-46.25-33.54-89.3 21.17-89.3 21.17 0 1.01-10.6 84 5.79 94.83z"/><path fill="#e8ad80" d="M2784.14 1271.77c0 3.29 2.37 5.95 5.29 5.95s5.29-2.67 5.29-5.95-2.37-5.95-5.29-5.95c-2.92-.01-5.29 2.66-5.29 5.95z" opacity=".5"/><path fill="#47271f" d="m2787.44 1294.49-7.7.54s-.37 6.48.86 7.16c1.23.69 4.88-3.5 6.84-7.7zM2779.19 1253.36c0 2.16 1.52 3.92 3.4 3.92s3.43-1.76 3.43-3.92c0-.43-.06-.85-.18-1.22-.36.52-.97.85-1.67.85-1.15 0-2.09-.94-2.09-2.1 0-.58.21-1.06.58-1.43h-.06c-1.89.01-3.41 1.74-3.41 3.9zM2786.68 1246.11c-.35-2.86-7.86-2.66-8.67-.09-.81 2.57 9.02 2.95 8.67.09zM2803.02 1262.89c.33 0 .63-.21.73-.54.23-.74 2.12-7.29-.89-9.37-1.68-1.17-3.25-1.56-4.64-1.17-1.87.52-2.67 2.25-2.7 2.33-.17.38 0 .83.38 1 .38.18.83.01 1-.38.02-.04.58-1.18 1.74-1.49.94-.26 2.07.07 3.36.96 1.78 1.23.79 6.08.3 7.68-.12.4.1.83.5.95.07.01.15.03.22.03zM2884.44 1186.46s-11.82-34.04-54.73-25.74c0 0-17.26-19.12-29.72-10.46-12.46 8.66-4.55 16.98-4.55 16.98s-19.46-10.48-30.28 3.95-7.97 60.36 17.66 63.37c25.63 3 108.71-23.8 101.62-48.1z"/><path fill="#47271f" d="M2791.84 1250.06c.21.18.4.39.58.58 3.28-1.97 10.96-5.43 15 2.4 3.1 6.04.09 13.88-4.95 19.01-7.02 3.91-1.7 11.08-4.59 17.43-7.04 15.52 12.72 41.39 43.3 41.39s71.05-56.45 65.89-91.76c-5.19-35.28-16-69.17-61.67-73.87-45.64-4.71-61.94 26.84-67.29 46.58-2.76 10.22 1.01 26.01 13.73 38.24z"/><path fill="#e8ad80" d="M2788.61 1325.12c.49.38 1.05.64 1.62.83 5.94 1.99 11.84 2.48 17.18 2.22l-4.44-8.23s-5.64-4.44-14.1 4.85c-.11.1-.22.21-.26.33z"/><path fill="#47271f" d="m2964.8 1747.24-35.08 694.44h-37.59l-110.67-598.67c-.01 0 50.87-98.45 183.34-95.77z"/><path fill="#5e3f35" d="M2940.63 1747.24c51.64 86.72-210.33 344.6-210.33 344.6l17.9 338.33-31.5 6.96s-106.74-232.52-93.12-379.31c13.63-146.79 90.6-298.95 90.6-298.95s197.45-60.34 226.45-11.63z"/><path fill="#f4caba" d="M2934.96 1408.06s74.8 120.11 78.42 169.43c3.86 52.55-78.42 120.18-78.42 120.18v-289.61z"/><path fill="#f5b501" d="M2917.76 1524.89c2.49.91 67.61-19.88 68.44-33.13.83-13.25-48.39-117.36-94.33-132.88-45.94-15.54 25.89 166.01 25.89 166.01z"/><path fill="#ffca03" d="M2971.96 1773.2c-28.75 59.69-254.2-12.53-257.77-14.32-3.58-1.79-48.33-400.98 117.25-415.3 165.58-14.33 170.55 367.27 140.52 429.62z"/><path fill="#f4caba" d="m2682.56 1405.63-107.41 31.03-112.89-133.61-13.65 21.24s37.03 143.4 90.74 179.2c53.7 35.8 166.69-9.55 166.69-9.55l-23.48-88.31z"/><path fill="#f5b501" d="M2664.65 1497.52c-15.48-14.8-30.82-61.65-17.9-78.73 31.9-42.18 141.65-70.53 169.39-60.98 27.75 9.54-93.6 195.05-151.49 139.71z"/><path fill="#f5b501" d="M2454.67 1228.5h11.32v57.65h-11.32z" transform="rotate(23.379 2460.202 1257.18)"/><path fill="#5e3f35" d="M2462.69 1251.86c-6.64-2.87-14.34.19-17.21 6.82l-25.87 59.86c-2.87 6.64.19 14.34 6.82 17.21 6.64 2.87 14.34-.19 17.21-6.82l25.87-59.86c2.87-6.63-.18-14.34-6.82-17.21zM2504.63 1154.85c-22.31-9.65-48.21.63-57.86 22.95-9.64 22.3.62 48.21 22.93 57.85 22.3 9.64 48.21-.63 57.85-22.93 9.65-22.32-.62-48.23-22.92-57.87zm-31.09 71.92c-17.41-7.52-25.42-27.74-17.9-45.14 7.52-17.41 27.74-25.42 45.15-17.9 17.41 7.52 25.41 27.74 17.88 45.15-7.52 17.4-27.72 25.42-45.13 17.89z"/><path fill="#f4caba" d="M2421.8 1303.91c1.29 1.53 3.35 3.5 6.67 6.1 0 0-.01-.03-.05-.07 1.61 1.35 3.38 2.66 5.21 3.86 3.16 2.09 5.59 3.44 7.35 4.31.01 0 .02.01.02.01 2.61 1.27 3.77 1.48 3.77 1.48s23.34 28.77 27.41 31.38c5.11 1.08 15.41-13.73 15.41-13.73.16-4.54-24.07-26.99-25.34-34.2-1.48-8.41 5.23-27.14-1.19-26.08-6.43 1.06-6.65 14.75-6.65 14.75s-.08-.15-.25-.42c-.99-1.65-4.87-7.79-10.14-11.96v-.01c-1.47-1.15-3.05-2.15-4.7-2.86-.29-.12-.59-.24-.88-.35-.52-.19-1.06-.35-1.61-.47l-.27-.06c-.27-.06-.55-.11-.82-.14h-.03l-.01.01c-.75.11-1.6.47-2.51 1.3-2.93 2.68-1.2 5.32-1.2 5.32s-2.85-1.22-4.89 1.31c-2.17 2.68-.09 4.21-.09 4.21s-3.34-.3-4.96 1.88c-1.72 2.3.72 4.03.72 4.03s-2.33-.55-4.37 2.12c-1.82 2.4 3.4 8.28 3.4 8.28z"/><path fill="#fff" d="M2429.48 1291.05a.295.295 0 0 0-.3.15c-.88 1.48-1.77 2.85-3.39 3.58-.54.24-1.15.52-1.38 1.11-.11.27-.1.56-.13.84-.04.38-.2.68-.4 1-.67 1.05-1.56 1.96-2.52 2.74-.44.36-.91.7-1.4 1.01-1.29-1.91-2.59-4.46-1.53-5.85 2.04-2.67 4.37-2.12 4.37-2.12s-2.44-1.73-.73-4.03c1.63-2.18 4.96-1.88 4.96-1.88s-2.08-1.53.09-4.21c2.03-2.53 4.89-1.31 4.89-1.31s-1.73-2.64 1.2-5.32c.91-.83 1.76-1.19 2.51-1.3.01 0 .01 0 .01-.01h.03c.27.04.55.08.82.14.09.02.19.04.27.06.54.12 1.08.28 1.61.47.29.11.59.23.88.35-.87.4-1.67 1.06-2.34 1.7-.76.73-1.49 1.6-1.66 2.67-.19 1.12.29 2.2.21 3.32-.09 1.17-1.01 2.14-2.04 2.61-.89.41-1.85.43-2.56 1.19-.78.85-1.08 1.99-1.47 3.04.01.03 0 .04 0 .05zM2462.34 1278.19s-1.19 4.98-.6 5.68c.59.7 1.57.16 1.57.16s.38-4.9-.97-5.84z" opacity=".2"/><path fill="#f4caba" d="M1426.46 1573.25s70.86 138.35 20.18 179.66c-30.46 24.83-73.6-130.27-73.99-146.98-.39-16.71 53.81-32.68 53.81-32.68z"/><path fill="#e8ad80" d="M1431.63 1752.58c1.39-4.8 2.03-9.81 2.07-14.8.04-6.37-1.62-12.28-2.51-18.54-1.05-7.42-.92-14.95-1.78-22.39-.93-7.99-3.16-15.63-5.22-23.37-3.61-13.64-4.28-30.88 7.93-40.69 4.87-3.91 10.76-5.32 16.87-5.77-10.58-30.38-22.54-53.75-22.54-53.75s-54.2 15.96-53.81 32.68c.34 14.08 31.09 126.67 58.99 146.63z" opacity=".35"/><path fill="#47271f" d="M1273.84 1255.93c-114.1 8.36-46.31 69.55-127.62 116.35s-155.2-6.72-130.78 80.58c-41.68 23.39-91.13 61.01-54.17 97.37 57.59 56.66 90.59 47.04 90.59 47.04s-34.03 169.02 134.52 121.06c127.03-36.14 106.85-131.63 112.1-184.74 20.68-6.52 33.39-19.95 33.14-42.46-1.1-99.44 31.43-241.73-57.78-235.2z"/><path fill="#f5b501" d="M1424.67 1541.23c26.57 32.05-36.38 87.07-49.8 78.32-13.42-8.75-76.68-158.45-76.68-158.45s61.56 1.81 126.48 80.13z"/><path fill="#5e3f35" d="m1278.65 2133.24.8 4.47h158.64c-4.51-125.08-12.23-244.67-12.23-244.67h-186.91l39.24 237.85.46 2.35z"/><path fill="#47271f" d="m1278.65 2133.24.8 4.47h73.8c.46-2.32.93-4.64 1.22-7.02 3.08-25.38-4.56-49.48-10.7-73.77-2.69-10.65-6.35-22.34-4.47-33.43 1.3-7.67 5.58-13.69 11.59-18.47 7.72-6.14 16.67-10.55 24.56-16.46 10.88-8.14 21.3-16.87 31.64-25.69 7.26-6.19 14.53-12.38 21.86-18.49-1.81-31.7-3.08-51.35-3.08-51.35h-186.91l39.24 237.85.45 2.36z"/><path fill="#5e3f35" d="m1284.32 2137.71 46.04-247.16h-238.37l17.96 247.16z"/><path fill="#ffca03" d="M1274.92 1454.72c103.73-.08 195.93 389.72 158.47 446.98-37.46 57.26-341.44 86.81-347.2 0-5.76-86.81 52.26-446.88 188.73-446.98z"/><path fill="#f5b501" d="M1228.95 1473.91c-.06 9.08 17.81 38.29 38.27 38.41 20.46.12 35.76-28.88 35.81-37.96.06-9.08-16.49-16.55-36.94-16.67-20.46-.13-37.08 7.13-37.14 16.22z"/><path fill="#f4caba" d="M1240.64 1471.54s11.7 34.64 27.69 34.74c16 .1 23.09-33.95 23.09-33.95s-2.21-15.71-3.82-27.33c-.95-7.04-1.73-12.81-1.82-13.75l-40.06-.24-2.25 17.9-2.83 22.63z"/><path fill="#e8ad80" d="M1243.48 1448.91c6.37 6.54 13.87 11.04 19.93 11.07 7.36.04 16.93-6.35 24.19-14.98-.95-7.04-1.73-12.81-1.82-13.75l-40.06-.24-2.24 17.9z" opacity=".35"/><path fill="#f4caba" d="M1331.2 1360.13c-4.51-8.8-12.71-6.28-17.36-3.88-.21-18.85-2.44-33.23-2.44-33.23a9.227 9.227 0 0 0-.96-2.88c-9.37-16.94-77.87-17.58-91.77-1.97-1.33 1.44-2.13 3.09-2.4 4.85 0 0-2.09 14.46-2.14 33.38-4.59-2.44-13.02-5.24-17.62 3.74-6.42 12.53 8.02 31.17 20.21 30.66 4.73 27.67 35.04 53.29 47.11 53.29 15.51 0 43.01-25.61 47.62-53.27 12.1.01 26.08-18.33 19.75-30.69z"/><path fill="#e8ad80" d="M1298.13 1392.62c.51 3.04-2.8 6.13-7.39 6.9-4.59.77-8.73-1.06-9.24-4.1-.51-3.04 2.8-6.12 7.39-6.9 4.59-.77 8.73 1.06 9.24 4.1zM1229.58 1392.62c-.51 3.04 2.8 6.13 7.39 6.9s8.73-1.06 9.24-4.1c.51-3.04-2.8-6.12-7.39-6.9-4.59-.77-8.72 1.06-9.24 4.1z" opacity=".35"/><path fill="#eaefee" d="M1263.56 1425.71c-5.27 0-8.35-4.43-8.4-4.5-.48-.71-.47-1.86.02-2.56s17.63-.51 18 .34c.36.85.18 1.96-.41 2.49-3.53 3.17-6.63 4.23-9.21 4.23z"/><path fill="#47271f" d="M1261.51 1389.37c-1.66-3.76.78-8.02.89-8.21a1.75 1.75 0 0 1 2.4-.63c.84.48 1.12 1.56.64 2.4-.48.83-1.46 3.34-.67 5.11.62 1.28 2.23 2.11 4.77 2.48a1.759 1.759 0 0 1-.5 3.48c-3.78-.55-6.28-2.05-7.44-4.45l-.09-.18zM1294.43 1366.67c0 3.07-2.11 5.56-4.7 5.56-2.59 0-4.7-2.48-4.7-5.56 0-3.07 2.11-5.57 4.7-5.57.73 0 1.41.19 2.03.56-.92.27-1.6 1.26-1.6 2.44 0 1.39.96 2.52 2.14 2.52.86 0 1.62-.62 1.95-1.5.11.51.18 1.01.18 1.55zM1246.07 1365.96c0 3.07-2.11 5.55-4.7 5.55-2.59 0-4.7-2.48-4.7-5.55s2.11-5.57 4.7-5.57c.73 0 1.41.19 2.03.56-.92.27-1.6 1.26-1.6 2.44 0 1.39.96 2.52 2.14 2.52.86 0 1.62-.62 1.95-1.5.12.51.18 1.02.18 1.55zM1327.45 1371.03c.34 0 .67-.21.8-.54 2.92-7.47-4.55-11.89-4.63-11.93a.862.862 0 0 0-1.17.31c-.24.41-.1.93.31 1.17.26.15 6.27 3.74 3.89 9.82-.17.44.05.94.48 1.11.11.04.22.06.32.06zM1199.17 1371.1c-.34 0-.67-.21-.8-.54-2.92-7.47 4.55-11.88 4.63-11.93.41-.24.93-.09 1.17.31.24.41.1.93-.31 1.17-.26.15-6.27 3.74-3.89 9.82.17.44-.05.94-.48 1.11-.11.04-.22.06-.32.06zM1252.23 1355.43s-17.88-.9-19.68-2.66c-1.8-1.76 3.8-5.48 11.68-3.48 7.88 1.99 10.05 6.08 8 6.14zM1280.08 1355.43s17.88-.9 19.68-2.66c1.8-1.76-3.8-5.48-11.68-3.48-7.88 1.99-10.05 6.08-8 6.14zM1277.17 1310.33s-28.55 33.98-63.48 33.64c-10.94-22.56-1.12-44.64 27.69-57.75 28.81-13.11 61 11.45 70.01 24.1 9 12.65 3.6 38.38 3.6 38.38s-35.18-3.92-37.82-38.37z"/><path fill="#f4ede1" d="m1494.54 1675.96-477.52 140.85c-44.07 13-69.35 59.44-56.35 103.51 13 44.07 59.44 69.35 103.51 56.35l477.52-140.85c44.09-13 69.35-59.44 56.35-103.51-13.01-44.07-59.43-69.36-103.51-56.35zm44.48 150.82-477.52 140.85c-19.57 5.77-39.63 3.06-56.24-5.98-16.61-9.06-29.78-24.43-35.55-44-11.55-39.16 10.82-80.25 49.97-91.8L1497.2 1685c19.59-5.78 39.65-3.06 56.25 5.98 16.6 9.04 29.77 24.42 35.55 44 11.55 39.14-10.82 80.25-49.98 91.8z"/><path fill="#f9d980" d="M1589 1734.98c11.55 39.14-10.82 80.25-49.98 91.8l-477.52 140.85c-19.57 5.77-39.63 3.06-56.24-5.98-16.61-9.06-29.78-24.43-35.55-44-11.55-39.16 10.82-80.25 49.97-91.8L1497.2 1685c19.59-5.78 39.65-3.06 56.25 5.98 16.61 9.04 29.77 24.41 35.55 44z"/><path fill="#f5b501" d="M1092.39 1884.57a7.08 7.08 0 0 0-8.71 4.94l-9.39 34a7.08 7.08 0 0 0 4.94 8.71 7.08 7.08 0 0 0 8.71-4.94l9.39-34a7.08 7.08 0 0 0-4.94-8.71z"/><path fill="#f5b501" d="M1103.4 1842.64c-12.67-3.5-25.78 3.94-29.28 16.61s3.93 25.78 16.6 29.28c12.67 3.5 25.78-3.94 29.28-16.6 3.5-12.67-3.93-25.79-16.6-29.29zm-11.29 40.85c-9.89-2.73-15.69-12.96-12.96-22.84 2.73-9.89 12.96-15.69 22.85-12.96 9.89 2.73 15.68 12.96 12.95 22.85-2.72 9.88-12.95 15.68-22.84 12.95zM1220.07 1876.63c-12.12 3.57-23.36.35-27.12-10.93l14.6-4.31c1.68 4.21 5.02 5.5 8.87 4.36 4.01-1.18 5.99-3.95 5.02-7.24-3.08-10.43-29.58 3.49-35.31-16.53-3.15-10.67 3.85-19.19 15.64-22.67 12.28-3.62 22.34.04 26.07 10.62l-14.84 4.38c-1.3-3.54-4.51-4.95-8.23-3.94-3.31.89-5.3 3.31-4.26 6.84 2.89 9.79 29.43-2.84 34.99 16.02 2.79 9.48-2.27 19.52-15.43 23.4zM1269.99 1812.02l-20.78 6.13 3.36 11.39 18.37-5.42 3.12 10.59-18.37 5.42 3.64 12.36 20.78-6.13 3.24 10.99-34.5 10.18-16.61-56.32 34.5-10.18 3.25 10.99zM1324.39 1834.44l-21.02 6.2-.43 10.94-14.36 4.24 3.77-62.33 15.88-4.69 36.99 50.31-14.52 4.28-6.31-8.95zm-19.72-28.11-.82 22.65 13.88-4.09-13.06-18.56zM1357.8 1774.18c13.8-4.07 23.04 1.84 25.93 11.63 2.08 7.06.2 14.85-7.71 19.98l19.58 18.47-15.48 4.57-17.99-17.81-3.29.97 6.27 21.26-13.72 4.05-16.61-56.32 23.02-6.8zm2.56 11.62-8.51 2.51 4.12 13.96 8.51-2.51c5.14-1.51 6.76-4.87 5.46-9.28-1.24-4.17-4.45-6.19-9.58-4.68zM1412.88 1757.23c13.4-3.95 25.73.61 32.54 11.86l-15.08 4.45c-3.75-4.13-8.71-5.28-13.92-3.74-8.42 2.48-12.35 10.45-9.42 20.4 2.93 9.95 10.56 14.5 18.98 12.02 5.21-1.54 8.76-5.2 9.66-10.7l15.08-4.45c.39 13.14-7.52 23.59-20.92 27.54-16.61 4.9-31.8-3.44-36.77-20.29-4.97-16.86 3.24-32.19 19.85-37.09zM1493.04 1770.3l-21.34 6.3 6.84 23.19-13.72 4.05-16.61-56.32 13.72-4.05 6.51 22.06 21.34-6.3-6.51-22.06 13.72-4.05 16.61 56.32-13.72 4.05-6.84-23.19z"/><path fill="#f4caba" d="M1085.81 1599.38s-51.49 127.29-19.47 167.87c20.58 26.08 137.62 142.68 137.62 142.68l17.04-12.66-106.47-180.34 35.94-101.83-64.66-15.72z"/><path fill="#f5b501" d="M1082.22 1585.05c-20.85 36.04 51.88 64.19 63 52.65 11.12-11.54 80.89-166.79 80.89-166.79s-77.86 0-143.89 114.14z"/><path fill="#f4caba" d="M1214.87 1935.23c-1.12-1.46-2.5-3.69-4.18-7.18 0 0 .02.02.05.06-.91-1.71-1.73-3.55-2.46-5.43-1.26-3.25-2.01-5.69-2.44-7.45 0-.01 0-.02-.01-.02-.63-2.59-.6-3.67-.6-3.67s-21.32-26.56-22.87-30.73c.02-4.8 15.33-11.18 15.33-11.18 4.11.73 19.57 26.88 25.81 29.42 7.27 2.96 25.41.58 23.21 6.14-2.2 5.57-14.55 3.11-14.55 3.11s.12.1.33.3c1.29 1.21 6.05 5.89 8.77 11.44v.01c.75 1.55 1.34 3.16 1.66 4.78l.15.86c.07.51.11 1.03.11 1.54v.26c0 .26-.01.51-.03.76v.03c-.01 0-.01 0-.01.01-.24.65-.74 1.34-1.66 2-2.98 2.11-5.01.05-5.01.05s.54 2.8-2.13 4.14c-2.83 1.43-3.8-.74-3.8-.74s-.38 3.05-2.66 4.09c-2.4 1.1-3.48-1.43-3.48-1.43s.04 2.2-2.75 3.52c-2.51 1.15-6.78-4.69-6.78-4.69z"/><path fill="#fff" d="M1227.92 1930.84c-.01.1-.06.2-.2.24-1.5.5-2.91 1.04-3.88 2.35-.32.44-.69.93-1.27 1.02-.26.04-.52-.01-.78-.04-.35-.04-.65.04-.97.17-1.07.4-2.07 1.02-2.95 1.74-.41.33-.8.68-1.18 1.06 1.46 1.53 3.51 3.19 4.96 2.51 2.8-1.31 2.75-3.52 2.75-3.52s1.08 2.53 3.48 1.43c2.27-1.04 2.65-4.09 2.65-4.09s.97 2.16 3.8.74c2.67-1.34 2.13-4.14 2.13-4.14s2.03 2.07 5.02-.04c.92-.66 1.41-1.35 1.66-2 .01 0 .01 0 .01-.01v-.03c.02-.25.03-.51.03-.76v-.26c0-.51-.04-1.02-.11-1.54-.04-.29-.09-.57-.15-.86-.53.7-1.28 1.29-1.98 1.77-.8.54-1.73 1.02-2.72.97-1.04-.05-1.92-.69-2.94-.84-1.07-.15-2.12.49-2.74 1.33-.54.72-.75 1.58-1.57 2.06-.91.54-2 .59-3.02.73-.01 0-.02.01-.03.01zM1245.86 1903.81s-4.71.1-5.22-.57c-.52-.67.16-1.45.16-1.45s4.48.62 5.06 2.02z" opacity=".2"/><path fill="#e8ddc5" d="m1419.5 1539.97 8.24 24.11-7.7 7.24 10.23 25.34s15.19 5.27 9.44 15.06c-5.75 9.79-29.65 9.46-29.65 9.46s-32.96-83.38-29.22-88.37c3.73-4.98 38.66 7.16 38.66 7.16z"/><linearGradient id="a" x1="173.379" x2="190.747" y1="606.961" y2="606.961" gradientTransform="rotate(15.656 -2753.498 5611.425)" gradientUnits="userSpaceOnUse"><stop offset="0" stop-color="#6c696a" stop-opacity=".134"/><stop offset="1" stop-color="#231f20" stop-opacity=".2"/></linearGradient><path fill="url(#a)" d="M1418.53 1573.56s-2.1 2.03-.58 4.79c1.53 2.76 3.49 2.49 3.49 2.49s-.19 1.42.4 4.56c.59 3.14 3.39 2.75 3.39 2.75s.88 1.81.8 2.61c-.08.8-1.3 4.32.67 4.85 1.98.52 3.16.09 3.16.09l-4.28-10.69-3.95-9.68-3.1-1.77z"/><path fill="#e8ad80" d="m1412.46 1538.02 8.78 25.46-8.15 7.62 10.89 26.76s16.12 5.58 10.04 15.9c-6.08 10.32-31.44 9.93-31.44 9.93s-7.04-55.63-31.15-93.28c3.96-5.26 41.03 7.61 41.03 7.61z"/><path fill="#47271f" d="M1401.1 1595.76c-.71-5.12-1.82-10.14-3.2-15.12-1.41-5.06-3.02-10.06-4.43-15.13-.52-1.88-1.08-3.76-1.39-5.69-.32-1.94-.45-4.03.22-5.92 1.21-3.42 4.66-4.55 7.93-5.04 3.42-.51 6.87-.39 10.31-.66 1.79-.14 3.58-.12 5.37-.17l-3.46-10.02s-37.07-12.87-41.02-7.61c19.19 29.97 27.56 71.33 30.18 86.96.69-7.18.48-14.46-.51-21.6z" opacity=".1"/><path fill="#e8ad80" d="M1421.86 1579.51c-1.3.43-2.87-.76-3.5-2.66-.63-1.9-.07-3.79 1.24-4.22 1.31-.43 2.87.76 3.5 2.66.62 1.9.07 3.79-1.24 4.22zM1425.36 1587.21c-1.31.43-2.87-.76-3.5-2.66-.62-1.9-.07-3.79 1.24-4.22 1.31-.43 2.87.76 3.5 2.66.62 1.91.07 3.79-1.24 4.22zM1428.86 1594.92c-1.31.43-2.87-.76-3.5-2.66-.62-1.9-.07-3.79 1.24-4.22 1.31-.43 2.87.76 3.5 2.66.62 1.9.07 3.79-1.24 4.22z"/><path fill="#f9f9f9" d="M1420.52 1573.31c.6-.61 2.09.83 2.07 2.72-.02 1.89-.79 3.74-1.72 2.9-.94-.84.86-1.46.55-2.83-.31-1.36-1.42-2.27-.9-2.79zM1424.51 1581.64c.51-.52 1.77.7 1.75 2.31-.02 1.61-.66 3.17-1.46 2.46-.8-.71.72-1.24.47-2.4-.26-1.17-1.2-1.93-.76-2.37zM1427.79 1589.27c.51-.51 1.77.7 1.75 2.31-.02 1.61-.67 3.17-1.46 2.46-.79-.71.72-1.24.47-2.4-.25-1.15-1.2-1.92-.76-2.37z" opacity=".26"/><path fill="#e8ddc5" d="M1356.48 1519.4c4.82 11.21 4.45 22.15-.84 24.42-5.29 2.27-13.48-4.97-18.31-16.19-4.82-11.21-4.44-22.14.84-24.42 5.29-2.27 13.48 4.97 18.31 16.19z"/><path fill="#fff" d="M1366.45 1515.11c7.31 17 8.3 32.89 2.22 35.51-6.08 2.62-16.94-9.04-24.25-26.03-7.31-17-8.31-32.89-2.22-35.51 6.08-2.62 16.93 9.03 24.25 26.03z"/><path fill="#e8ddc5" d="m1429.73 1441.31-82.31 35.4c-6.08 2.62-3.44 22.33 5.89 44.04s21.83 37.18 27.92 34.56l82.31-35.4-33.81-78.6z"/><path fill="#e8ad80" d="M1457.65 1475.88c9.33 21.71 11.97 41.42 5.89 44.04-6.08 2.62-18.58-12.86-27.92-34.56-9.34-21.71-11.97-41.42-5.89-44.04 6.09-2.62 18.59 12.85 27.92 34.56z"/><path fill="#f9f5ed" d="M1524.92 1344.43c-36.03 56.5-92.72 99.05-92.72 99.05l.12.29c-4.03 2.76-.69 20.18 7.71 39.69 8.63 20.07 19.34 34.74 23.91 32.78.22-.09.41-.23.59-.39 9.16-1.44 73.6-10.78 134.55.99 65.8 12.7 81.51 7.85 81.51 7.85l-49.54-115.18-6.22-14.46-49.54-115.18c-.02-.01-14.34 8.06-50.37 64.56z"/><path fill="#47271f" d="M1648.56 1450.23c-2.27.7-4.57 1.3-6.92 1.72-7.26 1.32-14.58.68-21.53-1.77-5.83-2.06-11.45-4.91-16.99-7.64-4.01-1.97-7.86-4.24-12.06-5.79-3.99-1.48-8.98-2.72-11.8 1.39-2.78 4.07-3.33 9.19-8.04 11.71-2.77 1.48-5.85 2.3-8.87 3.07-3.27.83-6.48 1.92-9.78 2.62-6.78 1.45-13.52 3.39-20.48 3.95-15.25 1.21-12.61 7.44-12.59 9.52.04 4.24 3.82 15.69 2.09 17.05-1.36 1.07-2.72 2.16-4.3 2.87-1.22.55-2.46 1.03-3.72 1.48-2.95 1.06-6.01 1.96-9.12 2.42-2.25.33-35.81 23.38-46.52 1.19-1.56-3.23-6.6-1.22-8.88-3.8-1.12-1.27-2.06-2.7-2.87-4.19-1.01-1.86-1.73-3.85-2.92-5.62-1.56-2.32-3.79-4.18-6.4-4.91.96 2.59 2.01 5.25 3.18 7.95 8.63 20.07 19.34 34.74 23.91 32.78.22-.09.41-.23.59-.39 9.16-1.44 73.6-10.78 134.55.99 65.8 12.7 81.51 7.85 81.51 7.85l-32.04-74.45z" opacity=".1"/><path fill="#e8ad80" d="M1649.04 1393.12c29.06 67.57 42.66 126.64 30.38 131.92-12.29 5.28-45.81-45.21-74.88-112.78-29.06-67.57-42.66-126.64-30.38-131.92 12.29-5.29 45.81 45.21 74.88 112.78z"/><path fill="#e7d8bc" d="M1677.17 1518.39c-9.47 4.08-35.03-33.62-59.94-87.09-3.08-6.62-6.17-13.48-9.2-20.54a780.11 780.11 0 0 1-8.46-20.46c-21.77-55.02-31.61-99.67-22.12-103.76 10.65-4.58 41.6 43.61 69.14 107.63 27.55 64.02 41.23 119.63 30.58 124.22z"/><path fill="#47271f" d="M1617.71 1334.82c2.33 5.15 4.63 10.32 6.87 15.52 5.82 13.51 11.14 27.16 16.18 40.9 3.66 9.96 7.15 19.98 10.08 29.97 2.8 9.56 5.13 19.22 6.16 28.18.97 8.51.63 16.22-1.51 21.76-2.38 6.17-6.77 9.41-11.7 10.86 14.77 24.61 27.35 38.99 33.39 36.39 10.65-4.58-3.04-60.2-30.58-124.22-9.55-22.21-19.51-42.5-28.89-59.36z" opacity=".1"/><path fill="#f9f5ed" d="m1644.21 1416.3-26.98 15c-3.08-6.62-6.17-13.48-9.2-20.54a780.11 780.11 0 0 1-8.46-20.46l29.63-8.88 15.01 34.88z"/><path fill="#e8ad80" d="M1642.13 1396.53c4.14 9.63 5.07 18.49 2.08 19.77-3 1.29-8.78-5.47-12.92-15.1-4.14-9.63-5.07-18.48-2.08-19.77 2.99-1.3 8.78 5.47 12.92 15.1z"/><path fill="#f4ede1" d="M1640.32 1397.31c3.21 7.46 4.19 14.2 2.2 15.06-1.99.86-6.21-4.5-9.42-11.95-3.21-7.46-4.19-14.2-2.2-15.06 1.99-.86 6.21 4.49 9.42 11.95z"/><path fill="#f4caba" d="M1450 1607.14c-9.32 4.97-38.41 11.86-42.24 1.27-1.79-4.95 1.68-8.12 4.99-9.45-4.18.61-9 1.01-10.04-5.37-.74-4.55 1.27-6.86 8.24-8.99-2.71.44-9.52.72-10.35-3.96-1.42-7.94 4.85-9.73 7.24-10.67-1.65.22-3.01-2.13-3.24-5.22-.29-3.84-1.73-7.56 9.37-10.25 3.69-.89 4.42-3.4 9.54-3.49 3.95-.07 8.04-.58 11.25.93 15.47 7.28 23.52 50.78 15.24 55.2z"/><path fill="#e8ad80" d="M1425.69 1595.44c-5.86.96-11.84 2.67-12.17 2.77-.32.09-.5.42-.41.74.09.32.42.5.74.41.1-.03 10.31-2.96 17-3.31.33-.01.58-.3.56-.63a.594.594 0 0 0-.63-.56c-1.56.07-3.32.29-5.09.58zM1423.36 1581.11c-5.86.96-11.84 2.68-12.17 2.77-.32.09-.5.42-.41.74.09.32.42.49.74.41.1-.03 10.31-2.96 17-3.31.33-.02.58-.3.56-.63a.594.594 0 0 0-.63-.56c-1.57.07-3.33.29-5.09.58zM1421.01 1566.78c-5.85.96-11.84 2.67-12.16 2.77-.32.09-.5.42-.41.74.09.32.42.5.74.41.1-.03 10.31-2.96 17-3.31.33-.02.58-.3.56-.63a.594.594 0 0 0-.63-.56c-1.57.07-3.33.29-5.1.58z"/><path fill="#f4caba" d="M1384.05 1574.22c.31-1.42 5.32-22.89 13.86-22.4 8.54.48.06 34.51.81 34.76s.97 28.74.97 28.26-18.87-25.79-15.64-40.62z"/><path fill="#fff" d="M1389.48 1559.72s3.59 1.07 3.76.91c.17-.16 2.68-7.16 2.69-7.84 0-.68-3.63 1.12-6.45 6.93z" opacity=".5"/><path fill="#f9d980" d="m921.09 1603.07-54.45-15.11c-5.75-1.6-11.88.69-15.18 5.67l-31.2 47.12c-2.79 4.21-3.05 9.6-.69 14.06l74.4 140.62a13.795 13.795 0 0 0 17.01 6.47l47.29-17.67a13.789 13.789 0 0 0 8.6-16.04l-36.05-154.95a13.742 13.742 0 0 0-9.73-10.17z"/><path fill="#f5b501" d="M872.68 1673.24c6.04-2.26 11.93-.26 14.57 6.8 2.64 7.06-.5 12.43-6.54 14.69s-12 .28-14.64-6.78c-2.63-7.05.57-12.45 6.61-14.71zm.9 11.91c1.12 2.99 2.76 3.9 4.67 3.18 1.91-.71 2.62-2.5 1.5-5.49-1.14-3.05-2.85-3.94-4.76-3.22s-2.55 2.48-1.41 5.53zm21.43-19.46 10.49-3.92-7.75 53.92-10.49 3.92 7.75-53.92zm17.1 20.93c6.04-2.26 11.91-.32 14.57 6.8 2.64 7.06-.5 12.43-6.54 14.69s-11.93.26-14.57-6.8c-2.66-7.12.5-12.43 6.54-14.69zm.9 11.92c1.12 2.99 2.76 3.9 4.67 3.18 1.91-.71 2.62-2.5 1.5-5.49s-2.85-3.94-4.76-3.22c-1.91.71-2.53 2.54-1.41 5.53z"/><path fill="#f9d980" d="m1676.77 1816.41-28.43-28.28c-3-2.99-7.59-3.7-11.36-1.77l-35.68 18.31a9.767 9.767 0 0 0-5.31 8.46l-2.85 112.86c-.12 4.91 3.42 9.16 8.28 9.91l35.4 5.51c4.86.76 9.52-2.21 10.89-6.93l31.56-108.4c1-3.44.04-7.15-2.5-9.67z"/><path fill="#f5b501" d="M1622.43 1842.99c4.52.7 7.47 3.99 6.65 9.27-.82 5.28-4.63 7.52-9.15 6.82-4.52-.7-7.52-4-6.7-9.28.82-5.29 4.68-7.51 9.2-6.81zm-3.58 7.68c-.35 2.24.35 3.37 1.78 3.59 1.43.22 2.49-.64 2.84-2.87.36-2.28-.39-3.42-1.82-3.65-1.43-.22-2.45.65-2.8 2.93zm20.02-4.59 7.85 1.22-23.54 30.66-7.85-1.22 23.54-30.66zm3.3 18.9c4.52.7 7.48 3.94 6.65 9.27-.82 5.28-4.63 7.52-9.15 6.82-4.52-.7-7.47-3.99-6.65-9.27.83-5.34 4.63-7.53 9.15-6.82zm-3.59 7.68c-.35 2.24.35 3.37 1.78 3.59 1.43.22 2.49-.64 2.84-2.87.35-2.24-.39-3.42-1.82-3.65-1.43-.22-2.45.69-2.8 2.93z"/><path fill="#f9d980" d="M996.76 1309.51c8.29 39.66 47.17 65.09 86.83 56.79 39.66-8.29 65.09-47.17 56.79-86.83-8.29-39.66-47.17-65.09-86.83-56.79-39.66 8.3-65.09 47.17-56.79 86.83z"/><path fill="#f5b501" d="M1036.01 1285.94h21.49v40.77h-21.49z" transform="rotate(-11.976 1046.968 1306.554)"/><path fill="#f5b501" d="m1106.71 1286.29-.2.04-1.46-6.87a6.739 6.739 0 0 0-8-5.2l-18.53 3.93s5.31-12.11 3.88-18.85c-1.28-6.03-3.24-13.96-12.14-12.07 0 0-2.81 2.68-.89 11.73 1.77 8.36-12.85 24.41-12.85 24.41l8.75 41.23s4.52 2.7 10.44 1.45l26.81-5.69c3.8-.81 6.22-4.54 5.41-8.33l-.89-4.18a4.126 4.126 0 0 0 3.18-4.9l-1.03-4.85c1.34-.28 2.2-1.6 1.91-2.94l-1.49-7.01c-.25-1.33-1.56-2.19-2.9-1.9z"/><path fill="#f9d980" d="M1507.91 1271.94c0 8.96-7.26 16.22-16.22 16.22-8.96 0-16.22-7.26-16.22-16.22 0-8.96 7.26-16.22 16.22-16.22 8.95-.01 16.22 7.26 16.22 16.22zM1447.72 1350.85c0 17.22-13.96 31.17-31.17 31.17-17.22 0-31.18-13.96-31.18-31.17s13.96-31.18 31.18-31.18c17.21.01 31.17 13.96 31.17 31.18z"/><circle cx="3093.27" cy="1257.32" r="82.15" fill="#f9d980" transform="rotate(-22.5 3093.138 1257.282)"/><path fill="#ffca03" d="m3102.3 1297.62-45.51-66.95a6.08 6.08 0 0 1 1.61-8.45 6.08 6.08 0 0 1 8.45 1.61l38.34 56.4 112.96-84.83a6.08 6.08 0 0 1 8.52 1.21c2.02 2.68 1.47 6.5-1.21 8.51l-123.16 92.5z"/><path fill="#e3ddd1" d="M1356.34 2246.87c-2.03-4.61-4.56-9.73-7.46-14.68-7.18-12.23-16.68-23.49-27.62-23.68-5.43-.12-21.44-.15-43.09-.2-35.25-.07-85.34-.03-128.31.05-19.68 0-37.9.03-52.5.08-66.14-.13-205.64-.31-223.9.07-24.02.46-41.31 54.27-41.31 54.27h530.41c.01 0-2.22-6.96-6.22-15.91z"/><path fill="#d1c5b0" d="M1289.89 2227.53c-15.68-.23-135.65-.1-192.52-.03-56.86-.07-176.84-.2-192.52.03-20.66.31-35.53 35.25-35.53 35.25h456.1c-.01 0-14.87-34.94-35.53-35.25zM1099.28 2267.46l-236.37-4.68 34.59 227.96s6.41 25.07 26.27 25.07H1274.81c19.86 0 26.28-25.07 26.28-25.07l34.58-227.96-236.39 4.68z"/><path fill="#e3ddd1" d="M1362.58 2262.78c0 9.53-7.75 17.28-17.32 17.28h-495.8c-6.82 0-12.75-3.96-15.53-9.67a17.074 17.074 0 0 1-1.79-7.6c0-3 .75-5.82 2.11-8.28.79-1.46 1.79-2.79 2.96-3.96 3.14-3.11 7.46-5.03 12.25-5.03h495.8c9.58-.02 17.32 7.69 17.32 17.26z"/><linearGradient id="b" x1="802.771" x2="1101.443" y1="2282.665" y2="2282.665" gradientUnits="userSpaceOnUse"><stop offset=".213" stop-color="#ebeae2"/><stop offset="1" stop-color="#ebeadb"/></linearGradient><path fill="url(#b)" d="M1101.28 2251.68a7.856 7.856 0 0 0-1.5-3.21c-1.75-2.18-4.68-3.36-7.57-2.71l-165.37 34.31-67.12 13.92-38.02 7.89 9.57-30.85 2.68-.64a17.074 17.074 0 0 1-1.79-7.6c0-3 .75-5.82 2.11-8.28l-10.85 2.64a7.69 7.69 0 0 0-5.53 5.18l-14.75 47.48c-.82 2.61-.18 5.43 1.64 7.46 1.86 1.96 4.61 2.89 7.25 2.32l45.13-9.35 144.2-29.92 1.21-.25 92.76-19.24c.29-.11.54-.14.79-.21 3.69-1.23 5.98-5.05 5.16-8.94z"/><linearGradient id="c" x1="1391.223" x2="1689.895" y1="2282.665" y2="2282.665" gradientTransform="matrix(-1 0 0 1 2783.627 0)" gradientUnits="userSpaceOnUse"><stop offset=".213" stop-color="#ebeae2"/><stop offset="1" stop-color="#ebeadb"/></linearGradient><path fill="url(#c)" d="M1093.9 2251.68c.25-1.21.79-2.29 1.5-3.21 1.75-2.18 4.68-3.36 7.57-2.71l165.37 34.31 67.12 13.92 38.02 7.89-9.57-30.85-2.68-.64c1.14-2.29 1.79-4.89 1.79-7.6 0-3-.75-5.82-2.11-8.28l10.85 2.64a7.69 7.69 0 0 1 5.53 5.18l14.75 47.48c.82 2.61.18 5.43-1.64 7.46-1.86 1.96-4.61 2.89-7.25 2.32l-45.13-9.35-144.2-29.92-1.22-.25-92.76-19.24c-.29-.11-.54-.14-.79-.21-3.69-1.23-5.97-5.05-5.15-8.94z"/><path fill="#e3ddd1" d="M1111.4 2476.03c0 5-4.35 9.04-9.72 9.04-5.35 0-9.7-4.04-9.7-9.04v-161.29c0-4.99 4.35-9.04 9.7-9.04 5.38 0 9.72 4.05 9.72 9.04v161.29zM952.14 2474.21c.7 4.95-3.05 9.48-8.4 10.12-5.31.64-10.18-2.84-10.85-7.8l-22.16-159.99c-.68-4.94 3.08-9.48 8.39-10.12 5.32-.64 10.19 2.86 10.87 7.81l22.15 159.98zM1003.52 2475.28c.35 4.97-3.71 9.27-9.05 9.61-5.37.31-9.99-3.45-10.33-8.43l-11.28-160.96c-.35-4.98 3.7-9.29 9.05-9.6 5.36-.33 9.99 3.45 10.33 8.43l11.28 160.95zM1058.62 2475.54c.25 4.99-3.91 9.2-9.27 9.43-5.35.23-9.91-3.63-10.13-8.62l-7.96-161.13c-.25-4.98 3.91-9.2 9.25-9.43 5.36-.23 9.91 3.63 10.15 8.61l7.96 161.14zM1251.22 2474.21c-.68 4.95 3.07 9.48 8.39 10.12 5.31.64 10.2-2.84 10.88-7.8l22.15-159.99c.68-4.94-3.07-9.48-8.38-10.12-5.34-.64-10.2 2.86-10.89 7.81l-22.15 159.98zM1199.84 2475.28c-.34 4.97 3.71 9.27 9.06 9.61 5.37.31 9.98-3.45 10.33-8.43l11.28-160.96c.35-4.98-3.71-9.29-9.07-9.6-5.34-.33-9.95 3.45-10.31 8.43l-11.29 160.95zM1144.75 2475.54c-.25 4.99 3.9 9.2 9.25 9.43 5.36.23 9.9-3.63 10.15-8.62l7.96-161.13c.24-4.98-3.91-9.2-9.26-9.43-5.36-.23-9.91 3.63-10.15 8.61l-7.95 161.14z"/></svg>